<svg enable-background="new 0 0 24 24" height="512" viewBox="0 0 24 24" width="512" xmlns="http://www.w3.org/2000/svg">
	<path style="fill:#8B8C7A;" d="m21.5 24h-19c-1.378 0-2.5-1.122-2.5-2.5v-19c0-1.378 1.122-2.5 2.5-2.5h19c1.378 0 2.5 1.122 2.5 2.5v19c0 1.378-1.122 2.5-2.5 2.5zm-19-23c-.827 0-1.5.673-1.5 1.5v19c0 .827.673 1.5 1.5 1.5h19c.827 0 1.5-.673 1.5-1.5v-19c0-.827-.673-1.5-1.5-1.5z"/>
	<path style="fill:#8B8C7A;" d="m14.5 20h-5c-.276 0-.5-.224-.5-.5v-7.5h-4c-.202 0-.385-.122-.462-.309-.078-.187-.035-.402.108-.545l7-7c.195-.195.512-.195.707 0l7 7c.143.143.186.358.108.545-.076.187-.259.309-.461.309h-4v7.5c0 .276-.224.5-.5.5zm-4.5-1h4v-7.5c0-.276.224-.5.5-.5h3.293l-5.793-5.793-5.793 5.793h3.293c.276 0 .5.224.5.5z"/>
</svg>