<svg height="75" viewBox="0 0 512 512" width="75" xmlns="http://www.w3.org/2000/svg"><g><g fill="#57a4ff"><path d="m456 48h-400a40 40 0 0 0 -40 40v272h480v-272a40 40 0 0 0 -40-40zm-224 264h-176v-224h176zm96 8a16 16 0 1 1 16-16 16 16 0 0 1 -16 16zm0-80a16 16 0 1 1 16-16 16 16 0 0 1 -16 16zm64 40a16 16 0 1 1 16-16 16 16 0 0 1 -16 16zm48-128c-32-56-56 0-56 0s-16 16-40 0-64 0-64 0v-64h160z"/><path d="m192 400-16 40h160l-16-40z"/></g><g fill="#004fac"><path d="m456 40h-400a48.051 48.051 0 0 0 -48 48v272a48.051 48.051 0 0 0 48 48h124.18l-9.6 24h-26.58a8 8 0 0 0 -8 8v24a8 8 0 0 0 8 8h224a8 8 0 0 0 8-8v-24a8 8 0 0 0 -8-8h-26.58l-9.6-24h124.18a48.051 48.051 0 0 0 48-48v-272a48.051 48.051 0 0 0 -48-48zm-96 408v8h-208v-8zm-172.18-16 9.6-24h117.16l9.6 24zm268.18-40h-400a32.058 32.058 0 0 1 -30.99-24h461.98a32.058 32.058 0 0 1 -30.99 24zm32-40h-464v-264a32.036 32.036 0 0 1 32-32h400a32.036 32.036 0 0 1 32 32z"/><path d="m56 320h176a8 8 0 0 0 8-8v-224a8 8 0 0 0 -8-8h-176a8 8 0 0 0 -8 8v224a8 8 0 0 0 8 8zm98.174-120 69.826-88.87v177.74zm61.366 104h-143.08l71.54-91.052zm-71.54-116.948-71.54-91.052h143.08zm-10.174 12.948-69.826 88.87v-177.74z"/><path d="m440 80h-160a8 8 0 0 0 -8 8v96a8 8 0 0 0 8 8h160a8 8 0 0 0 8-8v-96a8 8 0 0 0 -8-8zm-8 96h-144v-18.34c12.76-4.04 37-8.71 51.56 1 9.27 6.18 17.97 8.41 25.52 8.41 11.44 0 20.28-5.11 24.58-9.41a8.132 8.132 0 0 0 1.69-2.49c2.18-5.05 10.44-19.55 19.44-20.05 6.16-.31 13.67 6.42 21.21 19.06zm0-47.68c-7.08-6.53-14.49-9.6-22.15-9.17-18.12 1.04-29.26 21.36-32.4 27.94-3.24 2.49-13.64 8.5-29.01-1.75-11.67-7.77-27.37-10.21-46.66-7.25a130 130 0 0 0 -13.78 2.94v-45.03h144z"/><path d="m280 232h25.376a24 24 0 0 0 45.248 0h89.376a8 8 0 0 0 0-16h-89.376a24 24 0 0 0 -45.248 0h-25.376a8 8 0 0 0 0 16zm48-16a8 8 0 1 1 -8 8 8.009 8.009 0 0 1 8-8z"/><path d="m280 312h25.376a24 24 0 0 0 45.248 0h89.376a8 8 0 0 0 0-16h-89.376a24 24 0 0 0 -45.248 0h-25.376a8 8 0 0 0 0 16zm48-16a8 8 0 1 1 -8 8 8.009 8.009 0 0 1 8-8z"/><path d="m280 272h89.376a24 24 0 0 0 45.248 0h25.376a8 8 0 0 0 0-16h-25.376a24 24 0 0 0 -45.248 0h-89.376a8 8 0 0 0 0 16zm112-16a8 8 0 1 1 -8 8 8.009 8.009 0 0 1 8-8z"/></g></g></svg>