<?xml version="1.0" standalone="no"?>
<!DOCTYPE svg PUBLIC "-//W3C//DTD SVG 20010904//EN"
 "http://www.w3.org/TR/2001/REC-SVG-20010904/DTD/svg10.dtd">
<svg version="1.0" xmlns="http://www.w3.org/2000/svg"
 width="60.000000pt" height="60.000000pt" viewBox="0 0 300.000000 285.000000"
 preserveAspectRatio="xMidYMid meet">

<g transform="translate(0.000000,285.000000) scale(0.100000,-0.100000)"
fill="#9966CC" stroke="none">
<path d="M1368 2840 c-182 -33 -339 -119 -465 -254 -80 -85 -116 -138 -168
-249 -85 -180 -125 -368 -125 -594 0 -249 52 -466 170 -711 50 -103 58 -127
50 -148 -15 -38 -12 -120 5 -162 36 -85 106 -126 205 -120 89 5 138 36 175
113 32 64 31 127 -2 191 -25 51 -100 101 -161 109 -26 4 -53 8 -60 11 -16 5
-102 184 -132 274 -42 125 -60 232 -67 385 -11 288 40 496 171 693 86 130 194
211 340 258 199 63 367 32 504 -91 124 -112 224 -306 262 -507 l12 -67 72 -21
c39 -12 80 -24 90 -27 18 -5 19 -1 13 64 -14 149 -81 351 -159 479 -104 173
-281 312 -458 359 -69 19 -210 27 -272 15z"/>
<path d="M1195 1948 c-123 -72 -141 -250 -34 -342 48 -41 112 -61 167 -51 53
9 127 56 147 94 l16 31 98 0 c385 0 815 -196 1036 -473 107 -133 182 -300 199
-438 17 -139 -40 -293 -154 -413 -111 -116 -219 -164 -390 -173 -115 -6 -219
9 -340 51 l-65 22 -83 -65 -82 -65 26 -14 c37 -19 126 -50 214 -73 117 -31
310 -36 432 -11 299 62 527 254 594 502 26 95 23 289 -5 395 -109 414 -543
786 -1042 893 -115 25 -263 42 -366 42 -74 0 -79 1 -97 28 -35 53 -82 76 -160
80 -59 2 -78 -1 -111 -20z"/>
<path d="M393 1482 c-127 -101 -232 -230 -298 -367 -67 -139 -79 -195 -80
-370 0 -130 3 -160 23 -225 59 -187 159 -310 321 -394 248 -128 543 -133 880
-14 90 31 229 98 303 144 200 125 403 347 508 554 24 47 34 58 61 64 81 16
145 91 156 183 6 52 -18 126 -55 166 -45 50 -141 76 -210 57 -51 -13 -119 -72
-139 -117 -22 -53 -17 -132 13 -191 l26 -52 -37 -65 c-116 -208 -332 -399
-605 -535 -179 -89 -359 -128 -536 -116 -179 12 -304 65 -403 172 -99 105
-151 235 -151 378 0 97 20 177 70 276 45 90 92 151 185 241 l67 67 -24 92 -24
92 -51 -40z"/>
</g>
</svg>
